<svg xmlns="http://www.w3.org/2000/svg" width="182.265" height="36.074" viewBox="0 0 182.265 36.074">
  <g id="Group_1810" data-name="Group 1810" transform="translate(0)">
    <path id="Path_4421" data-name="Path 4421" d="M122.624,46.349a8.33,8.33,0,0,0-3.69,1V58.722a24,24,0,0,0,2.657.1c3.612,0,4.107-1.654,4.107-3.964V49.424C125.7,47.719,125.133,46.349,122.624,46.349Zm-23.99-.621c-2.506,0-3.078,1.376-3.078,3.08v.957h6.153v-.957C101.709,47.1,101.137,45.728,98.634,45.728ZM52.16,57.569a1.8,1.8,0,0,0,2.04,2.048,7.478,7.478,0,0,0,3.5-1v-2.7H54.4c-1.559,0-2.244.29-2.244,1.646Zm93.8-11.221c-2.511,0-3.38,1.37-3.38,3.076v6.225c0,1.71.87,3.084,3.38,3.084s3.38-1.374,3.38-3.084V49.424C149.34,47.719,148.463,46.349,145.96,46.349Zm-106.1,18.2h-7.38V46.687H28.79V40.532h3.688v-3.7c0-5.022,2.081-8.007,8-8.007H45.4v6.157H42.321c-2.3,0-2.455.86-2.455,2.466l-.009,3.081h5.576l-.652,6.155H39.857V64.549Zm25.221.046H58.927l-.266-1.556a14.1,14.1,0,0,1-6.968,1.808c-4.511,0-6.912-3.013-6.912-7.181,0-4.916,2.8-6.671,7.813-6.671h5.1V49.933c0-2.51-.288-3.246-4.147-3.246h-6.31l.617-6.155h6.9c8.468,0,10.325,2.675,10.325,9.451V64.6ZM85.993,47.138a35.2,35.2,0,0,0-6.768-.8c-3.308,0-4.307.73-4.307,3.539V55.19c0,2.809,1,3.542,4.307,3.542a35.123,35.123,0,0,0,6.768-.806v6a32.622,32.622,0,0,1-7.382.949c-7.923,0-11.072-4.167-11.072-10.186V50.383c0-6.024,3.149-10.2,11.072-10.2a32.482,32.482,0,0,1,7.382.953v6Zm23.094,7.556H95.555v.5c0,2.809,1,3.542,4.307,3.542a43.026,43.026,0,0,0,8.608-.806v6a38.8,38.8,0,0,1-9.22.949c-7.924,0-11.075-4.167-11.075-10.186v-4.93c0-5.267,2.338-9.58,10.457-9.58s10.455,4.264,10.455,9.58Zm23.989.114c0,5.817-1.663,10.061-11.735,10.061a55.706,55.706,0,0,1-9.786-.937V30.677l7.377-1.231V41.079a16.749,16.749,0,0,1,5.536-.893c7.378,0,8.607,3.308,8.607,8.623v6Zm23.649.127c0,5.019-2.072,9.886-10.741,9.886S135.2,59.953,135.2,54.935V50.089c0-5.021,2.111-9.89,10.784-9.89s10.741,4.868,10.741,9.89v4.846Zm23.633,0c0,5.019-2.074,9.886-10.742,9.886s-10.784-4.868-10.784-9.886V50.089c0-5.021,2.111-9.89,10.784-9.89s10.742,4.868,10.742,9.89v4.846Zm24.253,9.615h-8l-6.763-11.29v11.29h-7.38V30.676l7.38-1.231V51.252l6.763-10.72h8l-7.383,11.7Zm-35.019-18.2c-2.506,0-3.376,1.37-3.376,3.076v6.225c0,1.71.87,3.084,3.376,3.084s3.389-1.374,3.389-3.084V49.424c0-1.706-.886-3.076-3.389-3.076Zm39.231,13.988a2.26,2.26,0,1,1-.009,0Zm-.009.354a1.931,1.931,0,0,0,.009,3.857,1.932,1.932,0,0,0,0-3.857Zm-.424,3.25h-.4V61.4a4.667,4.667,0,0,1,.719-.059,1.351,1.351,0,0,1,.79.191.613.613,0,0,1,.229.526.632.632,0,0,1-.494.619V62.7c.222.041.373.242.424.616a2.115,2.115,0,0,0,.16.629h-.424a1.914,1.914,0,0,1-.172-.65.474.474,0,0,0-.547-.445h-.281v1.095Zm0-1.407h.294c.332,0,.615-.122.615-.437,0-.223-.16-.445-.615-.445a2.1,2.1,0,0,0-.294.019v.862Z" transform="translate(-28.79 -28.828)" fill="#e2e2e2"/>
  </g>
</svg>
