<svg xmlns="http://www.w3.org/2000/svg" width="17.506" height="17.506" viewBox="0 0 17.506 17.506">
  <path id="Icon_fa-brands-square-facebook" data-name="Icon fa-brands-square-facebook" d="M15.63,2.25H1.876A1.876,1.876,0,0,0,0,4.126V17.881a1.876,1.876,0,0,0,1.876,1.876H7.239V13.8H4.777V11H7.239V8.868A3.419,3.419,0,0,1,10.9,5.1a14.914,14.914,0,0,1,2.17.189V7.671H11.847a1.4,1.4,0,0,0-1.579,1.513V11h2.688l-.43,2.8H10.267v5.952H15.63a1.876,1.876,0,0,0,1.876-1.876V4.126A1.876,1.876,0,0,0,15.63,2.25Z" transform="translate(0 -2.25)" fill="#fff"/>
</svg>
