<svg xmlns="http://www.w3.org/2000/svg" width="18.34" height="18.34" viewBox="0 0 18.34 18.34">
  <path id="Icon_akar-instagram-fill" data-name="Icon akar-instagram-fill" d="M6.889,1.555c.978-.045,1.29-.055,3.78-.055s2.8.011,3.78.055a6.748,6.748,0,0,1,2.227.426,4.694,4.694,0,0,1,2.681,2.682,6.744,6.744,0,0,1,.427,2.226c.045.98.055,1.291.055,3.781s-.011,2.8-.055,3.781a6.723,6.723,0,0,1-.427,2.226,4.681,4.681,0,0,1-2.681,2.682,6.744,6.744,0,0,1-2.226.427c-.979.045-1.29.055-3.781.055s-2.8-.011-3.78-.055a6.722,6.722,0,0,1-2.226-.427,4.686,4.686,0,0,1-2.683-2.681,6.768,6.768,0,0,1-.426-2.226C1.51,13.472,1.5,13.16,1.5,10.67s.011-2.8.055-3.78a6.749,6.749,0,0,1,.426-2.227A4.5,4.5,0,0,1,3.04,3.039,4.5,4.5,0,0,1,4.663,1.981a6.768,6.768,0,0,1,2.226-.426Zm7.486,1.651c-.967-.044-1.257-.053-3.705-.053s-2.738.009-3.705.053a5.068,5.068,0,0,0-1.7.316,3.028,3.028,0,0,0-1.74,1.74,5.068,5.068,0,0,0-.316,1.7c-.044.967-.053,1.257-.053,3.706s.009,2.738.053,3.706a5.068,5.068,0,0,0,.316,1.7,3.028,3.028,0,0,0,1.74,1.74,5.068,5.068,0,0,0,1.7.316c.967.044,1.256.053,3.705.053s2.738-.009,3.705-.053a5.068,5.068,0,0,0,1.7-.316,3.028,3.028,0,0,0,1.74-1.74,5.068,5.068,0,0,0,.316-1.7c.044-.967.053-1.257.053-3.706s-.009-2.738-.053-3.706a5.068,5.068,0,0,0-.316-1.7,3.028,3.028,0,0,0-1.74-1.74,5.068,5.068,0,0,0-1.7-.316ZM9.5,13.5A3.059,3.059,0,1,0,7.611,10.67,3.059,3.059,0,0,0,9.5,13.5ZM7.337,7.337a4.713,4.713,0,1,1,0,6.666,4.713,4.713,0,0,1,0-6.666Zm9.092-.679a1.115,1.115,0,1,0-1.553-.023A1.115,1.115,0,0,0,16.429,6.659Z" transform="translate(-1.5 -1.5)" fill="#fff"/>
</svg>
