<svg xmlns="http://www.w3.org/2000/svg" width="54.093" height="38.686" viewBox="0 0 54.093 38.686">
  <g id="Group_1667" data-name="Group 1667" transform="translate(3175.788 -2712.559) rotate(180)">
    <path id="Path_4382" data-name="Path 4382" d="M3125.521-2712.626l7.706-15.437H3121.7v-23.181h23.115c.016.315.047.633.047.951q0,10.7-.012,21.4a3.441,3.441,0,0,1-.337,1.465c-2.327,4.708-4.7,9.4-7.019,14.105a1.17,1.17,0,0,1-1.24.76c-3.263-.031-6.528-.013-9.791-.016C3126.2-2712.579,3125.936-2712.6,3125.521-2712.626Z" fill="#ea3317"/>
    <path id="Path_4383" data-name="Path 4383" d="M3303.5-2728.064h-11.576v-23.122h23.157v1.01c0,7.1.009,14.2-.017,21.3a3.85,3.85,0,0,1-.385,1.631c-2.292,4.656-4.627,9.292-6.927,13.944a1.178,1.178,0,0,1-1.229.784c-3.53-.037-7.061-.018-10.773-.018Z" transform="translate(-139.299 -0.047)" fill="#ea3317"/>
  </g>
</svg>
