<svg xmlns="http://www.w3.org/2000/svg" width="110" height="110" viewBox="0 0 110 110">
  <g id="Analytics" transform="translate(14270 -4617)">
    <g id="Rectangle_1665" data-name="Rectangle 1665" transform="translate(-14270 4617)" fill="rgba(234,51,23,0.05)" stroke="#ea3317" stroke-width="1.4">
      <rect width="110" height="110" rx="14" stroke="none"/>
      <rect x="0.7" y="0.7" width="108.6" height="108.6" rx="13.3" fill="none"/>
    </g>
    <g id="Group_1849" data-name="Group 1849" transform="translate(-13306.279 8567.206)">
      <path id="Path_4426" data-name="Path 4426" d="M-880.049-3919.427v41.507a2.1,2.1,0,0,0-.106.251,3.873,3.873,0,0,1-3.66,3.045c-.458.038-.922.005-1.394.005v5.835c1.206,0,2.385.027,3.562-.01a1.575,1.575,0,0,1,1.6.8v1.466h-56.946c-.1-.077-.207-.152-.308-.23a1.056,1.056,0,0,1-.447-1.083,1.047,1.047,0,0,1,.837-.886,3.1,3.1,0,0,1,.67-.055c1.2,0,2.395,0,3.606,0v-5.755a14.524,14.524,0,0,1-2.107-.185,3.9,3.9,0,0,1-3.04-4.069q-.005-12.349,0-24.7c0-4.981-.027-9.962.026-14.943a6.427,6.427,0,0,1,.568-2.6,5.44,5.44,0,0,1,5.3-3.236q22.973-.008,45.946,0c.188,0,.377-.006.563.01a5.772,5.772,0,0,1,3.973,1.982A7.4,7.4,0,0,1-880.049-3919.427Zm-5.187,42.578h.789c1.558,0,2.143-.586,2.143-2.142q0-17.117,0-34.231v-.649h-53.225v.632q0,17.144,0,34.289c0,.188-.007.376.011.563a1.6,1.6,0,0,0,1.22,1.457,13.988,13.988,0,0,0,1.7.1c0-1.018,0-1.936,0-2.854,0-1.112.385-1.5,1.485-1.5q3.214,0,6.427,0c1.19,0,1.558.365,1.559,1.543q0,5.1,0,10.208v.621h3.158v-.7q0-11.279,0-22.559c0-1.215.365-1.584,1.577-1.586q3.129,0,6.259,0c1.291,0,1.637.349,1.637,1.639q0,11.279,0,22.558v.641h3.157v-.72q0-6.541,0-13.083c0-1.1.389-1.489,1.5-1.49q3.214,0,6.427,0c1.181,0,1.545.368,1.546,1.556q0,6.571,0,13.141v.6h3.157v-8.494c0-1.147-.007-2.294,0-3.44a1.14,1.14,0,0,1,.841-1.242c.809-.215,1.409.346,1.41,1.336q.006,5.612,0,11.223v.621h4.933v-24.228h-4.933v.652c0,1.26.013,2.519-.006,3.779a1.141,1.141,0,0,1-1.141,1.213,1.161,1.161,0,0,1-1.106-1.2c-.007-.112,0-.225,0-.338q0-2.425,0-4.85c0-1.182.367-1.556,1.543-1.558q3.185-.005,6.371,0c1.189,0,1.557.369,1.557,1.544q0,8.093,0,16.185Zm2.932-39.326c0-.7,0-1.333,0-1.969,0-2.542-1.343-3.876-3.9-3.876h-45.428c-.263,0-.527,0-.788.022a3.191,3.191,0,0,0-2.944,2.469,25.772,25.772,0,0,0-.217,3.354Zm-35.375,24.8v22.551h4.906v-22.551Zm17.536,9.536h-4.908v13.018h4.908Zm-30.16,2.93v10.081h4.893v-10.081Z" transform="translate(0)" fill="#ea3317"/>
      <path id="Path_4427" data-name="Path 4427" d="M-890.689-3802.792c2.156-2.161,4.3-4.3,6.413-6.457.1-.1.061-.437-.015-.621a3.962,3.962,0,0,1,.481-4.149,3.839,3.839,0,0,1,3.929-1.532,4.056,4.056,0,0,1,3.05,5.465c-.061.155-.132.306-.21.486l3.911,3.908c1.2,1.2,2.4,2.387,3.581,3.594a.59.59,0,0,0,.736.164,3.958,3.958,0,0,1,3.017.069.59.59,0,0,0,.523-.074q3.6-3.57,7.18-7.169c.023-.024.026-.069.05-.137a4.077,4.077,0,0,1-.5-3.631,4.056,4.056,0,0,1,4.428-2.7,4.083,4.083,0,0,1,3.457,3.991,4.021,4.021,0,0,1-3.381,3.981,5.73,5.73,0,0,1-1.723-.084.766.766,0,0,0-.787.23q-3.5,3.519-7.015,7.016a.591.591,0,0,0-.14.773,4.031,4.031,0,0,1-1.383,4.814,4.054,4.054,0,0,1-4.875-.125,4,4,0,0,1-1.15-4.871.557.557,0,0,0-.118-.766q-3.543-3.513-7.057-7.054a.581.581,0,0,0-.771-.17,3.679,3.679,0,0,1-2.9.063.6.6,0,0,0-.741.164q-3.057,3.081-6.141,6.136a.511.511,0,0,0-.112.677,4.026,4.026,0,0,1-2.414,5.4,4.017,4.017,0,0,1-5.243-2.9,3.839,3.839,0,0,1,1.158-3.855,3.936,3.936,0,0,1,4.127-.89C-891.127-3802.982-890.941-3802.892-890.689-3802.792Zm36.031-10.58a1.81,1.81,0,0,0-1.85,1.732,1.819,1.819,0,0,0,1.777,1.868,1.821,1.821,0,0,0,1.823-1.766A1.81,1.81,0,0,0-854.658-3813.372Zm-10.99,15.257a1.807,1.807,0,0,0-1.75-1.832,1.82,1.82,0,0,0-1.849,1.8,1.821,1.821,0,0,0,1.785,1.8A1.807,1.807,0,0,0-865.648-3798.114Zm-13.169-13.475a1.784,1.784,0,0,0-1.787-1.783,1.809,1.809,0,0,0-1.8,1.784,1.822,1.822,0,0,0,1.828,1.817A1.8,1.8,0,0,0-878.817-3811.589Zm-12.068,12.384a1.782,1.782,0,0,0-1.755-1.816,1.817,1.817,0,0,0-1.838,1.8,1.8,1.8,0,0,0,1.8,1.781A1.767,1.767,0,0,0-890.885-3799.206Z" transform="translate(-35.263 -93.309)" fill="#ea3317"/>
      <path id="Path_4428" data-name="Path 4428" d="M-897.129-3821.406c-.846,0-1.691.009-2.537,0a1.162,1.162,0,0,1-1.283-1.129,1.162,1.162,0,0,1,1.293-1.121q2.536-.016,5.073,0a1.158,1.158,0,0,1,1.283,1.13,1.165,1.165,0,0,1-1.293,1.119C-895.438-3821.4-896.284-3821.406-897.129-3821.406Z" transform="translate(-31.639 -86.402)" fill="#ea3317"/>
      <path id="Path_4429" data-name="Path 4429" d="M-897.156-3783.068c-.827,0-1.654.007-2.48,0a1.173,1.173,0,0,1-1.316-1.1c-.02-.67.509-1.149,1.317-1.154q2.508-.014,5.017,0c.808,0,1.337.484,1.316,1.155a1.174,1.174,0,0,1-1.317,1.1C-895.465-3783.062-896.31-3783.068-897.156-3783.068Z" transform="translate(-31.636 -119.325)" fill="#ea3317"/>
      <path id="Path_4430" data-name="Path 4430" d="M-830.657-3822.452a1.124,1.124,0,0,1-1.1,1.122,1.162,1.162,0,0,1-1.122-1.117,1.158,1.158,0,0,1,1.118-1.121A1.122,1.122,0,0,1-830.657-3822.452Z" transform="translate(-90.092 -86.485)" fill="#ea3317"/>
      <path id="Path_4431" data-name="Path 4431" d="M-631.542-3648.252a1.136,1.136,0,0,1-1.134-1.1,1.127,1.127,0,0,1,1.1-1.119,1.129,1.129,0,0,1,1.135,1.09A1.139,1.139,0,0,1-631.542-3648.252Z" transform="translate(-262.024 -235.14)" fill="#ea3317"/>
      <path id="Path_4432" data-name="Path 4432" d="M-754.52-3895.539h12.062c.131,0,.263,0,.394,0,.862.01,1.4.447,1.394,1.135s-.541,1.119-1.409,1.119q-12.456,0-24.912,0c-1.041,0-1.66-.756-1.291-1.57a1.255,1.255,0,0,1,1.306-.687c2.63.006,5.26,0,7.891,0Z" transform="translate(-145.477 -24.677)" fill="#ea3317"/>
      <path id="Path_4433" data-name="Path 4433" d="M-893.448-3895.454a1.165,1.165,0,0,1,1.124,1.112,1.165,1.165,0,0,1-1.112,1.125,1.165,1.165,0,0,1-1.124-1.112A1.165,1.165,0,0,1-893.448-3895.454Z" transform="translate(-37.125 -24.753)" fill="#ea3317"/>
      <path id="Path_4434" data-name="Path 4434" d="M-861.5-3895.454a1.166,1.166,0,0,1,1.119,1.118,1.166,1.166,0,0,1-1.118,1.119,1.166,1.166,0,0,1-1.119-1.118A1.166,1.166,0,0,1-861.5-3895.454Z" transform="translate(-64.553 -24.753)" fill="#ea3317"/>
      <path id="Path_4435" data-name="Path 4435" d="M-829.593-3895.457a1.161,1.161,0,0,1,1.143,1.094,1.16,1.16,0,0,1-1.093,1.143,1.16,1.16,0,0,1-1.143-1.093A1.161,1.161,0,0,1-829.593-3895.457Z" transform="translate(-91.978 -24.75)" fill="#ea3317"/>
    </g>
  </g>
</svg>
