<svg xmlns="http://www.w3.org/2000/svg" width="110" height="110" viewBox="0 0 110 110">
  <g id="Optimization" transform="translate(14350 -4454)">
    <g id="Rectangle_1665" data-name="Rectangle 1665" transform="translate(-14350 4454)" fill="rgba(234,51,23,0.05)" stroke="#ea3317" stroke-width="1.4">
      <rect width="110" height="110" rx="14" stroke="none"/>
      <rect x="0.7" y="0.7" width="108.6" height="108.6" rx="13.3" fill="none"/>
    </g>
    <g id="Group_1848" data-name="Group 1848" transform="translate(-14481.766 8254.778)">
      <path id="Path_4423" data-name="Path 4423" d="M163.933-3774.435H209.6c.121.038.239.087.363.113a6.494,6.494,0,0,1,4.613,3.371,16.209,16.209,0,0,1,.845,2.337v36.155c-.1.353-.2.709-.3,1.06a6.7,6.7,0,0,1-6.548,4.73c-4.5.01-8.992,0-13.488,0-.215,0-.43.019-.649.03v3.789h.635c1.362,0,2.724-.01,4.086,0a2.849,2.849,0,0,1,2.892,2.859,2.851,2.851,0,0,1-2.9,2.856q-12.369.012-24.738,0a2.853,2.853,0,0,1-2.919-2.84,2.854,2.854,0,0,1,2.93-2.877c1.362-.011,2.724,0,4.086,0,.2,0,.394-.016.6-.025v-3.793h-.688c-4.477,0-8.955.009-13.432,0a6.7,6.7,0,0,1-6.869-6.863q0-17.07.009-34.14a6.472,6.472,0,0,1,3.964-6.169A13.691,13.691,0,0,1,163.933-3774.435Zm49.584,38.174v-.615q0-15.3,0-30.6a4.793,4.793,0,0,0-5.064-5.046q-21.681,0-43.362,0a4.8,4.8,0,0,0-5.07,5.1q0,15.275,0,30.549v.621Zm-53.441,1.972a5.012,5.012,0,0,0,.44,3.019,4.833,4.833,0,0,0,4.658,2.695q21.595-.009,43.189,0c.242,0,.485-.009.726-.031a4.827,4.827,0,0,0,4.37-5.678Zm26.692,13.352H174.792c-.168,0-.337-.008-.5.007a.916.916,0,0,0-.877.914.93.93,0,0,0,.822.97,3.8,3.8,0,0,0,.559.015h23.951a3.8,3.8,0,0,0,.559-.015.93.93,0,0,0,.822-.97.917.917,0,0,0-.878-.914c-.166-.015-.335-.007-.5-.008Zm-5.7-1.947h11.38v-3.743h-11.38Z" fill="#ea3317"/>
      <path id="Path_4424" data-name="Path 4424" d="M242.459-3702.281a8.545,8.545,0,0,0-4.425-2.912,8.593,8.593,0,0,0-10.87,8.02,1.944,1.944,0,0,1-2.231,2.167q-3.526,0-7.052,0a1.967,1.967,0,0,1-2.164-2.194,20.094,20.094,0,0,1,16.086-19.382,20.066,20.066,0,0,1,23.607,15.695,25.248,25.248,0,0,1,.385,3.832,1.892,1.892,0,0,1-2.014,2.047c-2.425.01-4.851,0-7.276,0a1.915,1.915,0,0,1-2.143-2.03c-.009-.18-.038-.359-.066-.62-.275.136-.486.236-.694.345-1.024.535-2.043,1.079-3.07,1.606a7.145,7.145,0,0,0-2.16,1.52,3.671,3.671,0,0,1-4.761.425,3.824,3.824,0,0,1-1.38-4.606,3.792,3.792,0,0,1,4.222-2.284,1.007,1.007,0,0,0,.439.013C238.713-3701.168,240.531-3701.71,242.459-3702.281Zm-14.764-1.361-5.331-5.436c-3.487,3.721-4.939,8.955-4.67,12.132h7.545A10.679,10.679,0,0,1,227.7-3703.642Zm20.091-6.8a17.167,17.167,0,0,0-11.015-4.494v7.462a28.749,28.749,0,0,1,3,.9,28.034,28.034,0,0,1,2.694,1.464Zm-18.692,5.389c.12-.087.269-.192.416-.3a10.064,10.064,0,0,1,4.756-1.947c.442-.058.548-.205.545-.619-.017-2.182-.007-4.364-.01-6.546,0-.177-.026-.353-.041-.55a18.082,18.082,0,0,0-11.043,4.563Zm20.241-3.875-5.413,5.416c.513.694.513.695,1.421.452,1.061-.283,2.12-.577,3.186-.847a2.77,2.77,0,0,1,.932-.116,1.652,1.652,0,0,1,1.463,1.406,1.63,1.63,0,0,1-.863,1.784c-1.183.671-2.386,1.306-3.57,1.975a.644.644,0,0,0-.324.429c.008.494.091.986.144,1.466h7.6A18.075,18.075,0,0,0,249.336-3708.923Zm-15.478,11.987a1.9,1.9,0,0,0,1.9,1.927,1.9,1.9,0,0,0,1.913-1.854,1.9,1.9,0,0,0-1.869-1.955A1.9,1.9,0,0,0,233.859-3696.936Zm5.777-.427,7.525-4.034-.068-.157-8.217,2.289Z" transform="translate(-48.995 -48.867)" fill="#ea3317"/>
      <path id="Path_4425" data-name="Path 4425" d="M338.939-3493.344a10.516,10.516,0,0,1,1.06.007.91.91,0,0,1,.86.929.891.891,0,0,1-.852.932,17.554,17.554,0,0,1-2.12,0,.874.874,0,0,1-.829-.949.872.872,0,0,1,.821-.9,9.074,9.074,0,0,1,1.06-.008Z" transform="translate(-152.189 -239.048)" fill="#ea3317"/>
    </g>
  </g>
</svg>
