<svg xmlns="http://www.w3.org/2000/svg" width="110" height="110" viewBox="0 0 110 110">
  <g id="Performance_Marketing" data-name="Performance Marketing" transform="translate(14414 -4617)">
    <g id="Group_1854" data-name="Group 1854" transform="translate(-64)">
      <g id="Rectangle_1665" data-name="Rectangle 1665" transform="translate(-14350 4617)" fill="rgba(234,51,23,0.05)" stroke="#ea3317" stroke-width="1.4">
        <rect width="110" height="110" rx="14" stroke="none"/>
        <rect x="0.7" y="0.7" width="108.6" height="108.6" rx="13.3" fill="none"/>
      </g>
      <g id="Group_1850" data-name="Group 1850" transform="translate(-12712.175 8057.957)">
        <path id="Path_4436" data-name="Path 4436" d="M-1526.823-3412.7a1.359,1.359,0,0,1,.726,1.377,46.43,46.43,0,0,1-4.075,16.984,23.093,23.093,0,0,1-4.619,6.59q-2.673,2.643-5.309,5.324a1.393,1.393,0,0,0-.373.757c-.344,2.955-.646,5.914-1,8.866a2,2,0,0,1-.516,1.09c-2.81,2.851-5.651,5.672-8.476,8.507a1.182,1.182,0,0,1-1.255.426,1.145,1.145,0,0,1-.749-1.089c-.271-1.946-.54-3.893-.845-5.833a1.774,1.774,0,0,0-.434-.822c-.454-.52-.956-1-1.488-1.545l-1.787,2.976c-.269.447-.531.9-.809,1.339a1.06,1.06,0,0,1-1.757.23c-.7-.675-1.382-1.375-2.071-2.064q-4.726-4.726-9.454-9.45c-.35-.349-.669-.732-.471-1.232a1.717,1.717,0,0,1,.665-.751c1.354-.847,2.733-1.654,4.153-2.505-.6-.629-1.148-1.259-1.765-1.807-.2-.178-.587-.16-.892-.2q-2.812-.413-5.628-.81a1.056,1.056,0,0,1-.951-.7,1.089,1.089,0,0,1,.328-1.186c2.882-2.877,5.755-5.765,8.652-8.627a1.748,1.748,0,0,1,.959-.451c2.936-.349,5.878-.649,8.814-1a1.731,1.731,0,0,0,.94-.441c1.621-1.579,3.243-3.158,4.8-4.8a25.923,25.923,0,0,1,10.3-6.436,48.738,48.738,0,0,1,12.623-2.626,4.83,4.83,0,0,0,.51-.092Zm-23.059,37.167c.165-.2.277-.353.411-.487,4.146-4.149,8.246-8.344,12.456-12.427a25.558,25.558,0,0,0,6.31-10.006.545.545,0,0,0-.144-.678c-.8-.772-1.581-1.569-2.369-2.357q-3.212-3.212-6.431-6.417a.687.687,0,0,0-.548-.2,23.778,23.778,0,0,0-9.332,5.542q-8.114,8.13-16.242,16.246c-.121.122-.237.25-.32.338l13.229,13.226,1.471-1.464a3.359,3.359,0,0,1-.448-.327q-3.771-3.76-7.533-7.53a1.061,1.061,0,0,1-.145-1.614,1.085,1.085,0,0,1,1.614.135c1.15,1.138,2.292,2.286,3.436,3.431Zm-9.05,5.557,2.116-3.527-8.474-8.474-3.527,2.119Zm-.158-26.016c-2.133.238-4.165.453-6.192.7a1.393,1.393,0,0,0-.747.382q-3.191,3.152-6.351,6.333c-.12.119-.232.246-.376.4a2.06,2.06,0,0,0,.291.1c1.5.216,2.989.444,4.488.627a.939.939,0,0,0,.654-.283q3.944-3.91,7.862-7.846C-1559.355-3395.683-1559.26-3395.8-1559.091-3395.988Zm16.286,16.313a2.543,2.543,0,0,0-.212.155q-4.075,4.073-8.139,8.158a.869.869,0,0,0-.178.641c.182,1.43.4,2.855.6,4.281a5.138,5.138,0,0,0,.157.536,4.933,4.933,0,0,1,.385-.528c1.852-1.86,3.68-3.746,5.578-5.557a3.579,3.579,0,0,0,1.262-2.536C-1543.251-3376.219-1543-3377.9-1542.8-3379.675Zm5.295-29.261,7.657,7.655a42.452,42.452,0,0,0,1.526-9.189A43.407,43.407,0,0,0-1537.51-3408.936Z" transform="translate(-29.993 0)" fill="#ea3317"/>
        <path id="Path_4437" data-name="Path 4437" d="M-1609.565-3013.91c.309-.349.6-.714.929-1.043q4.957-4.97,9.926-9.928a3.438,3.438,0,0,1,.552-.474.992.992,0,0,1,1.245.151,1,1,0,0,1,.152,1.246,3.105,3.105,0,0,1-.437.514q-5.145,5.151-10.3,10.3c-.832.831-1.383.793-2.072-.137Z" transform="translate(0 -346.663)" fill="#ea3317"/>
        <path id="Path_4438" data-name="Path 4438" d="M-1587.92-3054.52a1.114,1.114,0,0,1,.953,1.581,1.913,1.913,0,0,1-.352.448q-3.038,3.046-6.083,6.084a2.26,2.26,0,0,1-.4.328,1,1,0,0,1-1.246-.143.985.985,0,0,1-.19-1.2,1.692,1.692,0,0,1,.315-.411q3.075-3.083,6.163-6.152A4.635,4.635,0,0,1-1587.92-3054.52Z" transform="translate(-12.715 -320.69)" fill="#ea3317"/>
        <path id="Path_4439" data-name="Path 4439" d="M-1530.375-2996.108a2.5,2.5,0,0,1-.38.648q-3.116,3.152-6.264,6.271a1.033,1.033,0,0,1-1.57.07,1.051,1.051,0,0,1,.1-1.535q3.124-3.144,6.266-6.269a1.043,1.043,0,0,1,1.229-.3A1.057,1.057,0,0,1-1530.375-2996.108Z" transform="translate(-63.29 -371.906)" fill="#ea3317"/>
        <path id="Path_4440" data-name="Path 4440" d="M-1338.651-3286.032a6.231,6.231,0,0,1,6.265,6.257,6.271,6.271,0,0,1-6.27,6.269,6.306,6.306,0,0,1-6.256-6.248A6.269,6.269,0,0,1-1338.651-3286.032Zm0,2.091a4.2,4.2,0,0,0-4.167,4.149,4.243,4.243,0,0,0,4.192,4.194,4.2,4.2,0,0,0,4.151-4.218A4.162,4.162,0,0,0-1338.653-3283.941Z" transform="translate(-236.955 -113.407)" fill="#ea3317"/>
        <path id="Path_4441" data-name="Path 4441" d="M-1447.957-3164.563a1.017,1.017,0,0,1-1.024-1.027,1.035,1.035,0,0,1,1.033-1.025,1.058,1.058,0,0,1,1.033,1.034A1.042,1.042,0,0,1-1447.957-3164.563Z" transform="translate(-143.777 -220.327)" fill="#ea3317"/>
      </g>
    </g>
  </g>
</svg>
