<svg xmlns="http://www.w3.org/2000/svg" width="110" height="110" viewBox="0 0 110 110">
  <g id="Content_Creation" data-name="Content Creation" transform="translate(14160 -4454)">
    <g id="Rectangle_1665" data-name="Rectangle 1665" transform="translate(-14160 4454)" fill="rgba(234,51,23,0.05)" stroke="#ea3317" stroke-width="1.4">
      <rect width="110" height="110" rx="14" stroke="none"/>
      <rect x="0.7" y="0.7" width="108.6" height="108.6" rx="13.3" fill="none"/>
    </g>
    <g id="Group_1851" data-name="Group 1851" transform="translate(-13233.988 7870.55)">
      <path id="Path_4442" data-name="Path 4442" d="M-846.416-3384.457a15.542,15.542,0,0,1,1.646.1,4.727,4.727,0,0,1,4.069,4.878q.008,12.469,0,24.939,0,8.214,0,16.428a4.783,4.783,0,0,1-5.131,5.126c-13.673,0-27.346-.039-41.018.029a4.959,4.959,0,0,1-5.3-5.29c.009-.118,0-.237,0-.455-.323,0-.629,0-.936,0a4.737,4.737,0,0,1-4.774-4.762q-.018-20.952,0-41.9a4.709,4.709,0,0,1,4.768-4.762q20.956-.017,41.912,0a4.733,4.733,0,0,1,4.758,4.777C-846.412-3385.063-846.416-3384.771-846.416-3384.457Zm-1.9,3.886h-47.634v.393q0,18.3,0,36.6a2.852,2.852,0,0,0,3.022,2.965q20.775.005,41.551,0a2.864,2.864,0,0,0,3.057-3.053q.007-6.725,0-13.451c0-.145-.026-.29-.039-.435l-.144-.087a4.559,4.559,0,0,1-.392.52q-4.351,4.362-8.719,8.706a3.423,3.423,0,0,1-1.125.734c-2.654,1.043-5.323,2.048-7.983,3.077-.471.182-.918.3-1.323-.106s-.278-.854-.1-1.322c1.03-2.659,2.036-5.328,3.08-7.981a3.4,3.4,0,0,1,.734-1.123c4.969-4.992,9.935-9.987,14.954-14.929a3.213,3.213,0,0,0,1.08-2.624C-848.374-3375.3-848.32-3377.916-848.32-3380.571Zm5.716,17.153c-1.19,1.2-2.249,2.287-3.341,3.343a1.423,1.423,0,0,0-.481,1.133c.018,5.02.012,10.04.011,15.06a4.793,4.793,0,0,1-5.2,5.179h-38.595c-.315,2.59,1.3,3.849,3.5,3.84,13.634-.059,27.267-.029,40.9-.03a2.9,2.9,0,0,0,3.205-3.2q0-12.292,0-24.583Zm-5.716-19.114c0-.833,0-1.622,0-2.411,0-2.184-1.109-3.29-3.3-3.29h-41.024c-.2,0-.4-.005-.6.005a2.652,2.652,0,0,0-2.57,2.1,26.463,26.463,0,0,0-.035,3.6Zm-2.823,17.053-11.292,11.293,1.1,1.332L-850-3364.189Zm-7.532,15.218,11.376-11.373-1.155-1.138-11.4,11.394Zm9-16.74,3.89,3.948,2.527-2.533-3.9-3.918Zm3.291-9.8h3.784c0-.885,0-1.694,0-2.5,0-2.263-1.492-3.512-3.784-3.146Zm-.026,1.917c0,1-.02,1.95.014,2.9a1.179,1.179,0,0,0,.3.715c1.033,1.07,2.094,2.114,3.149,3.163a2.16,2.16,0,0,0,.3.212v-6.986Zm-17.267,22.587c-.188.486-.414,1.012-.588,1.556a.6.6,0,0,0,.117.5c.54.577,1.1,1.133,1.675,1.68a.484.484,0,0,0,.4.119c.57-.191,1.128-.42,1.642-.616Zm-1.45,3.766-.565,1.5,1.463-.586Z" fill="#ea3317"/>
      <path id="Path_4443" data-name="Path 4443" d="M-853.31-3306.275q3.662,0,7.323,0c.9,0,1.225.324,1.226,1.213q0,4.494,0,8.989c0,.9-.326,1.225-1.215,1.226q-7.353,0-14.706,0c-.9,0-1.224-.323-1.225-1.215q0-4.494,0-8.989c0-.9.323-1.223,1.214-1.224Q-857-3306.279-853.31-3306.275Zm-6.665,9.484h13.263v-7.549h-13.263Z" transform="translate(-30.236 -70.528)" fill="#ea3317"/>
      <path id="Path_4444" data-name="Path 4444" d="M-837.774-3208.41v-1.831h24.715v1.831Z" transform="translate(-50.533 -151.291)" fill="#ea3317"/>
      <path id="Path_4445" data-name="Path 4445" d="M-837-3186.21v1.829h-24.715v-1.829Z" transform="translate(-30.398 -171.5)" fill="#ea3317"/>
      <path id="Path_4446" data-name="Path 4446" d="M-840.817-3162.256v1.83h-20.9v-1.83Z" transform="translate(-30.394 -191.645)" fill="#ea3317"/>
      <path id="Path_4447" data-name="Path 4447" d="M-861.736-3136.536v-1.832h20.9v1.832Z" transform="translate(-30.381 -211.734)" fill="#ea3317"/>
      <path id="Path_4448" data-name="Path 4448" d="M-861.73-3112.583v-1.833h20.883v1.833Z" transform="translate(-30.386 -231.877)" fill="#ea3317"/>
      <path id="Path_4449" data-name="Path 4449" d="M-712.727-3276.063v1.833H-729.8v-1.833Z" transform="translate(-141.337 -95.936)" fill="#ea3317"/>
      <path id="Path_4450" data-name="Path 4450" d="M-690.775-3300.014v1.83h-15.188v-1.83Z" transform="translate(-161.382 -75.794)" fill="#ea3317"/>
      <path id="Path_4451" data-name="Path 4451" d="M-729.793-3252.3h13.241v1.854h-13.241Z" transform="translate(-141.342 -115.923)" fill="#ea3317"/>
      <path id="Path_4452" data-name="Path 4452" d="M-728.017-3298.216h-1.835v-1.845h1.835Z" transform="translate(-141.292 -75.755)" fill="#ea3317"/>
      <path id="Path_4453" data-name="Path 4453" d="M-859.8-3208.359h-1.828v-1.838h1.828Z" transform="translate(-30.474 -151.328)" fill="#ea3317"/>
      <path id="Path_4454" data-name="Path 4454" d="M-861.59-3366.087h1.811v1.852h-1.811Z" transform="translate(-30.504 -20.229)" fill="#ea3317"/>
      <path id="Path_4455" data-name="Path 4455" d="M-835.888-3365.868v1.821h-1.852v-1.821Z" transform="translate(-50.561 -20.413)" fill="#ea3317"/>
      <path id="Path_4456" data-name="Path 4456" d="M-811.887-3364.1h-1.835v-1.845h1.835Z" transform="translate(-70.76 -20.348)" fill="#ea3317"/>
    </g>
  </g>
</svg>
