<svg xmlns="http://www.w3.org/2000/svg" xmlns:xlink="http://www.w3.org/1999/xlink" width="52.425" height="52.425" viewBox="0 0 52.425 52.425">
  <defs>
    <clipPath id="clip-path">
      <rect id="Rectangle_345" data-name="Rectangle 345" width="21.181" height="21.181" fill="#eaebeb"/>
    </clipPath>
  </defs>
  <g id="Group_1697" data-name="Group 1697" transform="translate(0.5 0.5)">
    <rect id="Rectangle_1584" data-name="Rectangle 1584" width="51.425" height="51.425" rx="8" transform="translate(0)" fill="none" stroke="#eaebeb" stroke-width="1"/>
    <g id="Group_167" data-name="Group 167" transform="translate(15.122 12.827)" clip-path="url(#clip-path)">
      <path id="Path_340" data-name="Path 340" d="M259.736,182.406H255v14.562h4.736Z" transform="translate(-255 -175.787)" fill="#eaebeb"/>
      <path id="Path_341" data-name="Path 341" d="M272.269,182.578c-.05-.016-.1-.034-.15-.049s-.128-.025-.193-.036a4.2,4.2,0,0,0-.849-.087,6.582,6.582,0,0,0-5.09,2.784v-2.784H261.25v14.562h4.737v-7.943s3.58-4.985,5.09-1.324v9.267h4.735v-9.827A4.722,4.722,0,0,0,272.269,182.578Z" transform="translate(-254.631 -175.787)" fill="#eaebeb"/>
      <path id="Path_342" data-name="Path 342" d="M257.317,180.789A2.317,2.317,0,1,0,255,178.473,2.316,2.316,0,0,0,257.317,180.789Z" transform="translate(-255 -176.156)" fill="#eaebeb"/>
    </g>
  </g>
</svg>
