<svg xmlns="http://www.w3.org/2000/svg" width="52.425" height="52.425" viewBox="0 0 52.425 52.425">
  <g id="Group_1699" data-name="Group 1699" transform="translate(0.5 0.5)">
    <rect id="Rectangle_1582" data-name="Rectangle 1582" width="51.425" height="51.425" rx="8" fill="none" stroke="#eaebeb" stroke-width="1"/>
    <path id="Icon_awesome-instagram" data-name="Icon awesome-instagram" d="M11.545,7.863a5.92,5.92,0,1,0,5.92,5.92A5.911,5.911,0,0,0,11.545,7.863Zm0,9.769a3.849,3.849,0,1,1,3.849-3.849A3.856,3.856,0,0,1,11.545,17.631ZM19.088,7.62A1.381,1.381,0,1,1,17.707,6.24,1.378,1.378,0,0,1,19.088,7.62Zm3.921,1.4a6.833,6.833,0,0,0-1.865-4.838,6.878,6.878,0,0,0-4.838-1.865c-1.906-.108-7.62-.108-9.526,0a6.868,6.868,0,0,0-4.838,1.86A6.856,6.856,0,0,0,.076,9.017c-.108,1.906-.108,7.62,0,9.526a6.833,6.833,0,0,0,1.865,4.838,6.887,6.887,0,0,0,4.838,1.865c1.906.108,7.62.108,9.526,0a6.833,6.833,0,0,0,4.838-1.865,6.878,6.878,0,0,0,1.865-4.838c.108-1.906.108-7.615,0-9.521ZM20.546,20.589a3.9,3.9,0,0,1-2.195,2.195c-1.52.6-5.126.464-6.806.464s-5.291.134-6.806-.464a3.9,3.9,0,0,1-2.195-2.195c-.6-1.52-.464-5.126-.464-6.806s-.134-5.291.464-6.806A3.9,3.9,0,0,1,4.739,4.782c1.52-.6,5.126-.464,6.806-.464s5.291-.134,6.806.464a3.9,3.9,0,0,1,2.195,2.195c.6,1.52.464,5.126.464,6.806S21.148,19.074,20.546,20.589Z" transform="translate(14.17 11.929)" fill="#eaebeb"/>
  </g>
</svg>
