<svg xmlns="http://www.w3.org/2000/svg" width="206.446" height="37.612" viewBox="0 0 206.446 37.612">
  <g id="_62c43abcec8a6fd3bae1270a_Greenish_Logo" data-name="62c43abcec8a6fd3bae1270a_Greenish Logo" transform="translate(0)">
    <path id="Path_1072" data-name="Path 1072" d="M152.04,87.7a17.1,17.1,0,0,1-7.9-1.755,12.828,12.828,0,0,1-5.3-5.065,15.216,15.216,0,0,1-1.874-7.7,15.216,15.216,0,0,1,1.874-7.7,12.5,12.5,0,0,1,5.3-5.065,16.786,16.786,0,0,1,7.9-1.795,20.171,20.171,0,0,1,5.344.638,13.675,13.675,0,0,1,4.307,1.914v5.783a10.956,10.956,0,0,0-4.028-2.074,17.583,17.583,0,0,0-5.1-.678,10.326,10.326,0,0,0-4.826,1.117,8.211,8.211,0,0,0-3.35,3.111,8.956,8.956,0,0,0-1.237,4.746,10.028,10.028,0,0,0,1.117,4.826,8.013,8.013,0,0,0,3.23,3.151,10.906,10.906,0,0,0,9.093.239V76.013H152.08V71.546H162.45V84.986Q158.5,87.7,152.04,87.7Z" transform="translate(-85.822 -54.097)" fill="#ccc"/>
    <path id="Path_1073" data-name="Path 1073" d="M182.662,74.4h5.823v2.752a7.085,7.085,0,0,1,3.231-2.114,13.653,13.653,0,0,1,4.706-.758V78.87a13.138,13.138,0,0,0-4.865.838,5.086,5.086,0,0,0-2.872,2.552V93.547h-6.022Z" transform="translate(-104.634 -60.543)" fill="#ccc"/>
    <path id="Path_1074" data-name="Path 1074" d="M217.46,93.81q-5.5,0-8.655-2.633a9.248,9.248,0,0,1-3.15-7.458,10.051,10.051,0,0,1,2.792-7.5q2.832-2.752,8.057-2.752a12.237,12.237,0,0,1,5.823,1.276,8.661,8.661,0,0,1,3.629,3.55,10.281,10.281,0,0,1,1.236,5.065v2.433H211.4q.638,3.669,6.859,3.669a23.476,23.476,0,0,0,3.789-.319,16.924,16.924,0,0,0,3.391-.877v4.228a15.749,15.749,0,0,1-3.59.957A27.167,27.167,0,0,1,217.46,93.81Zm4.028-11.925a3.866,3.866,0,0,0-1.436-2.951,5.572,5.572,0,0,0-3.629-1.077,5.5,5.5,0,0,0-3.589,1.077,3.954,3.954,0,0,0-1.435,2.951Z" transform="translate(-114.099 -60.209)" fill="#ccc"/>
    <path id="Path_1075" data-name="Path 1075" d="M254.982,93.81q-5.5,0-8.654-2.633a9.248,9.248,0,0,1-3.151-7.458,10.049,10.049,0,0,1,2.792-7.5q2.831-2.752,8.056-2.752a12.238,12.238,0,0,1,5.823,1.276,8.658,8.658,0,0,1,3.629,3.55,10.281,10.281,0,0,1,1.237,5.065v2.433H248.92q.638,3.669,6.86,3.669a23.475,23.475,0,0,0,3.789-.319,16.929,16.929,0,0,0,3.39-.877v4.228a15.744,15.744,0,0,1-3.589.957A27.176,27.176,0,0,1,254.982,93.81Zm4.028-11.925a3.868,3.868,0,0,0-1.436-2.951,5.573,5.573,0,0,0-3.629-1.077,5.5,5.5,0,0,0-3.589,1.077,3.955,3.955,0,0,0-1.436,2.951Z" transform="translate(-129.546 -60.209)" fill="#ccc"/>
    <path id="Path_1076" data-name="Path 1076" d="M282.056,74.068h5.823v2.353a8.208,8.208,0,0,1,3.111-2.194,9.934,9.934,0,0,1,3.829-.758q3.909,0,5.823,2.114a7.869,7.869,0,0,1,1.954,5.624v12h-6.023V81.885q0-3.709-3.43-3.709a5.582,5.582,0,0,0-2.832.758,6.16,6.16,0,0,0-2.233,2.154V93.212h-6.022Z" transform="translate(-145.551 -60.209)" fill="#ccc"/>
    <path id="Path_1077" data-name="Path 1077" d="M323.683,64.949a3.271,3.271,0,0,1-2.353-.917,3.068,3.068,0,0,1-.957-2.313,3.021,3.021,0,0,1,.957-2.273,3.371,3.371,0,0,1,4.706,0,3.021,3.021,0,0,1,.957,2.273,3.067,3.067,0,0,1-.957,2.313A3.271,3.271,0,0,1,323.683,64.949ZM320.652,67.9h6.063V87.045h-6.063Z" transform="translate(-161.325 -54.041)" fill="#ccc"/>
    <path id="Path_1078" data-name="Path 1078" d="M342.553,93.81a24.435,24.435,0,0,1-4.626-.479,11.491,11.491,0,0,1-3.829-1.276V87.349a14.939,14.939,0,0,0,3.829,1.555,16.108,16.108,0,0,0,4.148.6,7.481,7.481,0,0,0,2.393-.279,1.034,1.034,0,0,0,.758-1.037,1.174,1.174,0,0,0-.438-.957,3.569,3.569,0,0,0-1.356-.678q-.877-.319-2.952-.917a22.673,22.673,0,0,1-3.828-1.436,5.7,5.7,0,0,1-2.074-1.874,5.462,5.462,0,0,1-.678-2.872,4.917,4.917,0,0,1,2.353-4.467,11.976,11.976,0,0,1,6.461-1.516,20.193,20.193,0,0,1,4.108.439,10.476,10.476,0,0,1,3.311,1.077v4.587a10.111,10.111,0,0,0-3.032-1.236,14.182,14.182,0,0,0-3.589-.479,8.065,8.065,0,0,0-2.552.319,1.19,1.19,0,0,0-.878,1.2,1.254,1.254,0,0,0,.838,1.157,22.3,22.3,0,0,0,3.231,1l.8.2a15.757,15.757,0,0,1,3.908,1.516,4.6,4.6,0,0,1,1.954,1.954,5.958,5.958,0,0,1,.6,2.832,4.931,4.931,0,0,1-2.273,4.228A11.63,11.63,0,0,1,342.553,93.81Z" transform="translate(-166.893 -60.209)" fill="#ccc"/>
    <path id="Path_1079" data-name="Path 1079" d="M366.025,56.929h6.022V69.452a8.73,8.73,0,0,1,3.071-2.074,9.4,9.4,0,0,1,3.669-.718q3.909,0,5.823,2.114a7.869,7.869,0,0,1,1.954,5.623v12h-6.022V75.076q0-3.709-3.43-3.709a5.579,5.579,0,0,0-2.832.758,6.158,6.158,0,0,0-2.234,2.154V86.4h-6.022Z" transform="translate(-180.119 -53.399)" fill="#ccc"/>
    <path id="Path_1080" data-name="Path 1080" d="M80.611,60.1a9.173,9.173,0,1,1-9.173-9.173A9.173,9.173,0,0,1,80.611,60.1ZM50.1,68.609A18.362,18.362,0,0,1,69.61,88.5,18.362,18.362,0,0,1,50.1,68.609ZM76.076,88.148A18.346,18.346,0,0,0,92.9,68.633,18.363,18.363,0,0,0,73.01,88.142,18.457,18.457,0,0,0,76.076,88.148Z" transform="translate(-50.035 -50.929)" fill="#ccc" fill-rule="evenodd"/>
  </g>
</svg>
