<svg xmlns="http://www.w3.org/2000/svg" xmlns:xlink="http://www.w3.org/1999/xlink" width="52.425" height="52.425" viewBox="0 0 52.425 52.425">
  <defs>
    <clipPath id="clip-path">
      <rect id="Rectangle_343" data-name="Rectangle 343" width="21.861" height="21.861" transform="translate(0)" fill="#eaebeb"/>
    </clipPath>
  </defs>
  <g id="Group_1698" data-name="Group 1698" transform="translate(0.5 0.5)">
    <rect id="Rectangle_1583" data-name="Rectangle 1583" width="51.425" height="51.425" rx="8" fill="none" stroke="#eaebeb" stroke-width="1"/>
    <g id="Group_166" data-name="Group 166" transform="translate(14.967 14.782)" clip-path="url(#clip-path)">
      <path id="Path_339" data-name="Path 339" d="M206.861,180.134a9.352,9.352,0,0,1-2.583.707,4.455,4.455,0,0,0,1.972-2.477,8.929,8.929,0,0,1-2.842,1.085,4.481,4.481,0,0,0-7.752,3.065,4.565,4.565,0,0,0,.1,1.021,12.686,12.686,0,0,1-9.239-4.687,4.483,4.483,0,0,0,1.377,5.99,4.435,4.435,0,0,1-2.024-.552v.049a4.5,4.5,0,0,0,3.591,4.4,4.446,4.446,0,0,1-1.175.148,3.955,3.955,0,0,1-.848-.076,4.525,4.525,0,0,0,4.188,3.123,9.006,9.006,0,0,1-5.557,1.911,8.44,8.44,0,0,1-1.072-.061,12.756,12.756,0,0,0,19.631-10.741c0-.2-.007-.389-.016-.579A8.956,8.956,0,0,0,206.861,180.134Z" transform="translate(-185 -175.982)" fill="#eaebeb"/>
    </g>
  </g>
</svg>
