<svg xmlns="http://www.w3.org/2000/svg" width="253.2" height="199.7" viewBox="0 0 253.2 199.7">
  <g id="Group_1893" data-name="Group 1893" transform="translate(10955.95 382.95)">
    <path id="Path_4423" data-name="Path 4423" d="M286.8,172.5c0-36.2,32.2-65.5,72-65.5s72,29.3,72,65.5" transform="translate(-11190 -489.2)" fill="none" stroke="#fff" stroke-linejoin="round" stroke-miterlimit="10" stroke-width="1.5"/>
    <path id="Path_4424" data-name="Path 4424" d="M343,156.7a4.268,4.268,0,0,0-4.3,4.3v16.3h8.7V161A4.419,4.419,0,0,0,343,156.7Z" transform="translate(-11190 -489.2)" fill="none" stroke="#fff" stroke-linejoin="round" stroke-miterlimit="10" stroke-width="1.5"/>
    <path id="Path_4425" data-name="Path 4425" d="M358.8,156.7a4.268,4.268,0,0,0-4.3,4.3v16.3h8.7V161A4.419,4.419,0,0,0,358.8,156.7Z" transform="translate(-11190 -489.2)" fill="none" stroke="#fff" stroke-linejoin="round" stroke-miterlimit="10" stroke-width="1.5"/>
    <path id="Path_4426" data-name="Path 4426" d="M374.6,156.7a4.268,4.268,0,0,0-4.3,4.3v16.3H379V161A4.354,4.354,0,0,0,374.6,156.7Z" transform="translate(-11190 -489.2)" fill="none" stroke="#fff" stroke-linejoin="round" stroke-miterlimit="10" stroke-width="1.5"/>
    <path id="Path_4427" data-name="Path 4427" d="M462.4,286.4,450.8,172.5H410.6v10.9h-100V172.5H270.4L258.8,286.4" transform="translate(-11190 -489.2)" fill="none" stroke="#fff" stroke-linejoin="round" stroke-miterlimit="10" stroke-width="1.5"/>
    <rect id="Rectangle_1714" data-name="Rectangle 1714" width="14.9" height="9.4" transform="translate(-10914.1 -282.2)" fill="none" stroke="#fff" stroke-linejoin="round" stroke-miterlimit="10" stroke-width="1.5"/>
    <rect id="Rectangle_1715" data-name="Rectangle 1715" width="14.9" height="9.4" transform="translate(-10899.3 -244.9)" fill="none" stroke="#fff" stroke-linejoin="round" stroke-miterlimit="10" stroke-width="1.5"/>
    <rect id="Rectangle_1716" data-name="Rectangle 1716" width="14.9" height="9.4" transform="translate(-10871.1 -275.1)" fill="none" stroke="#fff" stroke-linejoin="round" stroke-miterlimit="10" stroke-width="1.5"/>
    <rect id="Rectangle_1717" data-name="Rectangle 1717" width="14.9" height="9.4" transform="translate(-10797.3 -282.2)" fill="none" stroke="#fff" stroke-linejoin="round" stroke-miterlimit="10" stroke-width="1.5"/>
    <rect id="Rectangle_1718" data-name="Rectangle 1718" width="14.9" height="9.4" transform="translate(-10782.5 -231.2)" fill="none" stroke="#fff" stroke-linejoin="round" stroke-miterlimit="10" stroke-width="1.5"/>
    <rect id="Rectangle_1719" data-name="Rectangle 1719" width="14.9" height="9.4" transform="translate(-10759.5 -272.8)" fill="none" stroke="#fff" stroke-linejoin="round" stroke-miterlimit="10" stroke-width="1.5"/>
    <path id="Path_4428" data-name="Path 4428" d="M359.1,218.5s-24.4,29.3-24.4,67.7h48.8C383.4,247.7,359.1,218.5,359.1,218.5Z" transform="translate(-11190 -489.2)" fill="none" stroke="#fff" stroke-linejoin="round" stroke-miterlimit="10" stroke-width="1.5"/>
    <g id="Group_1888" data-name="Group 1888" transform="translate(-11190 -489.2)">
      <path id="Path_4429" data-name="Path 4429" d="M343.2,262.7s-8.6,10.3-8.6,23.8h17.1C351.8,273,343.2,262.7,343.2,262.7Z" fill="none" stroke="#fff" stroke-linejoin="round" stroke-miterlimit="10" stroke-width="1.5"/>
    </g>
    <g id="Group_1889" data-name="Group 1889" transform="translate(-11190 -489.2)">
      <path id="Path_4430" data-name="Path 4430" d="M359.1,262.7s-8.6,10.3-8.6,23.8h17.1C367.6,273,359.1,262.7,359.1,262.7Z" fill="none" stroke="#fff" stroke-linejoin="round" stroke-miterlimit="10" stroke-width="1.5"/>
    </g>
    <g id="Group_1890" data-name="Group 1890" transform="translate(-11190 -489.2)">
      <path id="Path_4431" data-name="Path 4431" d="M374.9,262.7s-8.6,10.3-8.6,23.8h17.1C383.4,273,374.9,262.7,374.9,262.7Z" fill="none" stroke="#fff" stroke-linejoin="round" stroke-miterlimit="10" stroke-width="1.5"/>
    </g>
    <rect id="Rectangle_1720" data-name="Rectangle 1720" width="223.7" height="9" transform="translate(-10941.2 -202)" fill="none" stroke="#fff" stroke-linejoin="round" stroke-miterlimit="10" stroke-width="1.5"/>
    <rect id="Rectangle_1721" data-name="Rectangle 1721" width="251.7" height="9" transform="translate(-10955.2 -193)" fill="none" stroke="#fff" stroke-linejoin="round" stroke-miterlimit="10" stroke-width="1.5"/>
    <path id="Path_4433" data-name="Path 4433" d="M367.6,286.2" transform="translate(-11190 -489.2)" fill="#fff" stroke="#fff" stroke-linejoin="round" stroke-miterlimit="10" stroke-width="1.5"/>
  </g>
</svg>
