<svg xmlns="http://www.w3.org/2000/svg" width="52.425" height="52.425" viewBox="0 0 52.425 52.425">
  <g id="Group_1695" data-name="Group 1695" transform="translate(0.5 0.5)">
    <rect id="Rectangle_1592" data-name="Rectangle 1592" width="51.425" height="51.425" rx="8" fill="none" stroke="#eaebeb" stroke-width="1"/>
    <path id="Icon_akar-youtube-fill" data-name="Icon akar-youtube-fill" d="M25.351,8.7a3.005,3.005,0,0,0-.826-1.37,3.29,3.29,0,0,0-1.443-.8C21.055,6,12.939,6,12.939,6A82.658,82.658,0,0,0,2.809,6.5a3.409,3.409,0,0,0-1.443.82A3.125,3.125,0,0,0,.526,8.7,31.382,31.382,0,0,0,0,14.628a31.325,31.325,0,0,0,.526,5.927,3.049,3.049,0,0,0,.836,1.369,3.339,3.339,0,0,0,1.447.8c2.053.533,10.13.533,10.13.533a82.849,82.849,0,0,0,10.143-.507,3.29,3.29,0,0,0,1.443-.8,3,3,0,0,0,.825-1.37,30.615,30.615,0,0,0,.54-5.928A28.673,28.673,0,0,0,25.351,8.7ZM10.358,18.322V10.935l6.753,3.694-6.753,3.693Z" transform="translate(12.766 11.084)" fill="#eaebeb"/>
  </g>
</svg>
