<svg xmlns="http://www.w3.org/2000/svg" width="52.425" height="52.425" viewBox="0 0 52.425 52.425">
  <g id="Group_1701" data-name="Group 1701" transform="translate(0.5 0.5)">
    <rect id="Rectangle_1592" data-name="Rectangle 1592" width="51.425" height="51.425" rx="8" fill="none" stroke="#eaebeb" stroke-width="1"/>
    <path id="Icon_akar-tiktok-fill" data-name="Icon akar-tiktok-fill" d="M20.83,6.046a5.239,5.239,0,0,1-.453-.264,6.368,6.368,0,0,1-1.163-.988,5.478,5.478,0,0,1-1.311-2.7h0a3.286,3.286,0,0,1-.051-.964H13.9v15.28c0,.2,0,.408-.008.608,0,.025,0,.047,0,.075a.13.13,0,0,1,0,.034v.009A3.354,3.354,0,0,1,12.2,19.794a3.3,3.3,0,0,1-1.636.432,3.356,3.356,0,0,1,0-6.711,3.3,3.3,0,0,1,1.027.164L11.6,9.653A7.34,7.34,0,0,0,5.94,11.31,7.754,7.754,0,0,0,4.248,13.4a7.228,7.228,0,0,0-.872,3.319A7.829,7.829,0,0,0,3.8,19.338v.01A7.7,7.7,0,0,0,4.873,21.3,8.033,8.033,0,0,0,6.585,22.92v-.01l.009.01a7.4,7.4,0,0,0,4.034,1.214,7.154,7.154,0,0,0,2.994-.662,7.512,7.512,0,0,0,2.431-1.827,7.6,7.6,0,0,0,1.325-2.2,8.239,8.239,0,0,0,.477-2.518V8.818c.048.029.687.451.687.451a9.13,9.13,0,0,0,2.355.973,13.6,13.6,0,0,0,2.416.331V6.65a5.127,5.127,0,0,1-2.484-.6Z" transform="translate(12.37 13.082)" fill="#eaebeb"/>
  </g>
</svg>
